<svg xmlns="http://www.w3.org/2000/svg" xml:space="preserve" width="2000" height="1500" data-id="lg_Rcic5sP9JAE8nj2Pbn" data-version="1" viewBox="0 0 2000 1500"><path fill="#fff" stroke="transparent" d="M0 0h2000v1500H0z"/><g data-padding="20"><g transform="translate(-1647.059 -1251.773)scale(2.57847)"><rect width="489.967" height="56.5" x="381.418" y="348.09" fill="none" rx="0" ry="0" transform="translate(435.51 399.37)"/><path fill="#3b3b3b" d="M847.472 754.62v9.95q-5.95-.3-8.8-.35v17.1q2.9-.05 8.8-.35v9.95h-29.05v-9.95q5.75.3 8.75.35v-17.1q-3 .05-8.75.35v-9.95Zm32.56 36.3h-11.25q.3-7.35.3-13.55 0-2.2-1.08-3.5-1.07-1.3-2.72-1.3t-2.8 1.47q-1.15 1.48-1.35 4.03-.1 3.8-.1 5.4 0 3.4.2 7.45h-11.95q.4-7.2.4-13.6t-.4-13.7q3.3.15 5.05.15 1.85 0 5.05-.15l1.45 7.35q1.15-4 3.6-5.93 2.45-1.92 5.7-1.92 3 0 5.2 1.32 2.2 1.33 3.32 3.58 1.13 2.25 1.13 5.05v7.2q0 6.65.25 10.65m24.45-27.2v8.85q-4.6-.3-8.4-.45l-.05 5.3q0 2.7 1.18 4.22 1.17 1.53 4.17 1.53 1.15 0 2.2-.2-.2 1.85-.2 3.75 0 .9.1 4.1-2.2.4-3.7.5t-3.9.1q-5.85 0-8.28-2.83-2.42-2.82-2.42-7.87l.05-8.45q-2.35.1-4.9.3v-8.85q2.6 0 4.4-1.65t2.15-3.95h13.6q-2.55 3.5-5.65 5.6Zm33.45 14.7h-22.5q.4 2.2 1.97 3.57 1.58 1.38 4.48 1.38 2.1 0 3.95-.83 1.85-.82 2.95-2.32 3.35 1.65 8.9 3.55-1.55 3.5-5.63 5.57-4.07 2.08-10.62 2.08-8.5 0-12.58-3.93-4.07-3.92-4.07-10.32 0-6.25 4.05-10.15t12.6-3.9q5.1 0 8.85 1.7t5.75 4.72q2 3.03 2 6.93 0 1.3-.1 1.95m-15.8-7.75q-2.5 0-4.1.95t-2.25 2.6h11.8q-.6-1.6-1.95-2.58-1.35-.97-3.5-.97m27.29-7.06 1.5 7.4q2.1-7.55 10.45-7.55 1.45 0 2.8.2l-1.6 11.2q-3.6-1.35-5.9-1.35-2.85 0-4.2 1.7t-1.35 4.55v-.05l-.05 3.3q0 3.55.2 7.9h-11.95q.4-7.2.4-13.6t-.4-13.7q3.3.15 5.05.15 1.85 0 5.05-.15"/><path fill="#3b3b3b" d="M987.282 763.62h11.6q-5.4 14.55-9.6 27.3h-15.65q-4.5-13.65-9.65-27.3h11.75l5.8 20.6Zm18.1-2.95q-3.15 0-4.68-1.55-1.52-1.55-1.52-4.05 0-2.45 1.52-4.05 1.53-1.6 4.68-1.6 3 0 4.6 1.62 1.6 1.63 1.6 4.03 0 2.5-1.55 4.05t-4.65 1.55m6.1 30.25h-11.9q.35-8.05.35-13.3 0-6.25-.4-14h12q-.4 7.45-.4 14 0 5.5.35 13.3m35.04-12.5h-22.5q.4 2.2 1.98 3.57 1.57 1.38 4.47 1.38 2.1 0 3.95-.83 1.85-.82 2.95-2.32 3.35 1.65 8.9 3.55-1.55 3.5-5.63 5.57-4.07 2.08-10.62 2.08-8.5 0-12.57-3.93-4.08-3.92-4.08-10.32 0-6.25 4.05-10.15t12.6-3.9q5.1 0 8.85 1.7t5.75 4.72q2 3.03 2 6.93 0 1.3-.1 1.95m-15.8-7.75q-2.5 0-4.1.95t-2.25 2.6h11.8q-.6-1.6-1.95-2.58-1.35-.97-3.5-.97m42.16-7.05 2.8 19.6 4.3-19.6h9.95l-5.55 27.3h-13.35l-3.15-12.75-3.55 12.75h-12.85l-5.55-27.3h9.95l4.25 19.55 2.9-19.55Zm67.25 27.3h-11.65q.4-6.55.4-13.55 0-2.25-1.12-3.53-1.13-1.27-2.98-1.27-1.7 0-2.92 1.5-1.23 1.5-1.23 4.35v-.05q0 8.85.25 12.55h-11.25q.3-7.35.3-13.55 0-2.2-1.07-3.5-1.08-1.3-2.73-1.3-1.75 0-2.92 1.47-1.18 1.48-1.38 4.03-.1 3.8-.1 5.4 0 3.4.2 7.45h-11.95q.4-7.2.4-13.6t-.4-13.7q3.3.15 5.05.15 1.85 0 5.05-.15l1.5 7.4q1.15-4.05 3.65-5.98 2.5-1.92 5.75-1.92 3.9 0 6.38 2.15 2.47 2.15 3.07 5.6 1.15-3.55 3.85-5.65t6.15-2.1q4.5 0 7.05 3.02 2.55 3.03 2.55 8.28v8.3q0 5.65.1 8.2m18.4.5q-8.55 0-12.58-3.93-4.02-3.92-4.02-10.32 0-6.25 4.02-10.15 4.03-3.9 12.58-3.9 5.75 0 9.62 1.87 3.88 1.88 5.73 5.05 1.85 3.18 1.85 7.13 0 6.45-4.28 10.35-4.27 3.9-12.92 3.9m.2-8.5q3.25 0 4.85-1.55t1.6-4.15q0-2.45-1.6-4.03-1.6-1.57-4.85-1.57t-4.75 1.55-1.5 4.05q0 2.6 1.5 4.15t4.75 1.55m28.45-5.65q.1 2.55 1.62 4.1 1.53 1.55 4.53 1.55 1.65 0 2.95-.63 1.3-.62 2.4-1.87 4.25 1.65 9.95 2.85-1.65 3.85-5.58 6-3.92 2.15-10.17 2.15-8.35 0-12.35-3.9t-4-10.25 4-10.25 12.35-3.9q6.25 0 10.17 2.15 3.93 2.15 5.58 6-4.45.95-9.95 2.85-1.1-1.25-2.4-1.88-1.3-.62-2.95-.62-3 0-4.53 1.55-1.52 1.55-1.62 4.1m43.65-13.7h14.65l-12.4 11.3q6.35 9 11.85 16.05h-13.25l-2.55-4.1q-2.5-4.15-3.3-5.4l-4.15 3.8v5.7h-11.5q.4-9.5.4-19.25 0-9.8-.4-19.65h11.5v21.2q4.85-4.95 9.15-9.65"/><path fill="#3b3b3b" d="M1277.932 778.42h-22.5q.4 2.2 1.97 3.57 1.58 1.38 4.48 1.38 2.1 0 3.95-.83 1.85-.82 2.95-2.32 3.35 1.65 8.9 3.55-1.55 3.5-5.63 5.57-4.07 2.08-10.62 2.08-8.5 0-12.57-3.93-4.08-3.92-4.08-10.32 0-6.25 4.05-10.15t12.6-3.9q5.1 0 8.85 1.7t5.75 4.72q2 3.03 2 6.93 0 1.3-.1 1.95m-15.8-7.75q-2.5 0-4.1.95t-2.25 2.6h11.8q-.6-1.6-1.95-2.58-1.35-.97-3.5-.97m27.29-7.06 1.5 7.4q2.1-7.55 10.45-7.55 1.45 0 2.8.2l-1.6 11.2q-3.6-1.35-5.9-1.35-2.85 0-4.2 1.7t-1.35 4.55v-.05l-.05 3.3q0 3.55.2 7.9h-11.95q.4-7.2.4-13.6t-.4-13.7q3.3.15 5.05.15 1.85 0 5.05-.15"/><path fill="#ff851b" d="M773.752 772.92a13.49 13.49 0 0 1 13.491 13.49l.17 27.2h13.54v-27.2c0-15.022-12.179-27.2-27.2-27.2s-27.2 12.178-27.2 27.2v27.2h13.721l-.013-27.2c0-7.45 6.04-13.49 13.491-13.49"/><path fill="#3d9970" d="M773.502 779.761a13.49 13.49 0 0 1-13.49-13.49l-.17-27.2h-13.54v27.2c0 15.021 12.178 27.2 27.2 27.2s27.2-12.179 27.2-27.2v-27.2H786.98l.013 27.2c0 7.45-6.04 13.49-13.49 13.49"/></g><path fill="transparent" stroke="transparent" stroke-width="2.674" d="M250 649.733h1500v200.534H250z"/></g></svg>